<svg width="26" height="26" viewBox="0 0 26 26" fill="none" xmlns="http://www.w3.org/2000/svg">
<path d="M25.0435 11.4179V12.0942C25.0435 12.6545 24.5893 13.1087 24.029 13.1087H23.6908L22.587 20.8352C22.4442 21.8348 21.5882 22.5773 20.5785 22.5773H5.16071C4.151 22.5773 3.29494 21.8348 3.1521 20.8352L2.04834 13.1087H1.71017C1.14988 13.1087 0.695679 12.6545 0.695679 12.0942V11.4179C0.695679 10.8576 1.14988 10.4034 1.71017 10.4034H4.55671L9.07036 4.19716C9.50976 3.59303 10.3557 3.45941 10.9599 3.89881C11.5641 4.33821 11.6976 5.18417 11.2582 5.78835L7.90183 10.4034H17.8373L14.4809 5.7883C14.0415 5.18417 14.1752 4.33817 14.7793 3.89877C15.3834 3.45937 16.2295 3.59294 16.6689 4.19711L21.1825 10.4034H24.029C24.5893 10.4034 25.0435 10.8576 25.0435 11.4179ZM13.8841 18.8575V14.1232C13.8841 13.5629 13.4299 13.1087 12.8696 13.1087C12.3093 13.1087 11.8551 13.5629 11.8551 14.1232V18.8575C11.8551 19.4178 12.3093 19.872 12.8696 19.872C13.4299 19.872 13.8841 19.4178 13.8841 18.8575ZM18.6184 18.8575V14.1232C18.6184 13.5629 18.1642 13.1087 17.6039 13.1087C17.0436 13.1087 16.5894 13.5629 16.5894 14.1232V18.8575C16.5894 19.4178 17.0436 19.872 17.6039 19.872C18.1642 19.872 18.6184 19.4178 18.6184 18.8575ZM9.14978 18.8575V14.1232C9.14978 13.5629 8.69559 13.1087 8.13529 13.1087C7.575 13.1087 7.1208 13.5629 7.1208 14.1232V18.8575C7.1208 19.4178 7.575 19.872 8.13529 19.872C8.69559 19.872 9.14978 19.4178 9.14978 18.8575Z" fill="#292929"/>
</svg>
