<svg width="25" height="26" viewBox="0 0 25 26" fill="none" xmlns="http://www.w3.org/2000/svg">
<path d="M23.7391 16.7609H23.1304V12.6484C23.1304 12.1652 22.9364 11.7011 22.594 11.3587L18.7935 7.55818C18.4511 7.21579 17.987 7.02177 17.5038 7.02177H15.8261V5.19569C15.8261 4.18753 15.0082 3.3696 14 3.3696H1.82609C0.817935 3.3696 0 4.18753 0 5.19569V17.3696C0 18.3777 0.817935 19.1957 1.82609 19.1957H2.43478C2.43478 21.212 4.07065 22.8479 6.08696 22.8479C8.10326 22.8479 9.73913 21.212 9.73913 19.1957H14.6087C14.6087 21.212 16.2446 22.8479 18.2609 22.8479C20.2772 22.8479 21.913 21.212 21.913 19.1957H23.7391C24.0739 19.1957 24.3478 18.9218 24.3478 18.587V17.3696C24.3478 17.0348 24.0739 16.7609 23.7391 16.7609ZM6.08696 21.0218C5.0788 21.0218 4.26087 20.2038 4.26087 19.1957C4.26087 18.1875 5.0788 17.3696 6.08696 17.3696C7.09511 17.3696 7.91304 18.1875 7.91304 19.1957C7.91304 20.2038 7.09511 21.0218 6.08696 21.0218ZM18.2609 21.0218C17.2527 21.0218 16.4348 20.2038 16.4348 19.1957C16.4348 18.1875 17.2527 17.3696 18.2609 17.3696C19.269 17.3696 20.087 18.1875 20.087 19.1957C20.087 20.2038 19.269 21.0218 18.2609 21.0218ZM21.3043 13.1087H15.8261V8.84786H17.5038L21.3043 12.6484V13.1087Z" fill="#292929"/>
</svg>
