<svg width="25" height="26" viewBox="0 0 25 26" fill="none" xmlns="http://www.w3.org/2000/svg">
<path d="M12.5216 13.1087C15.5955 13.1087 18.0868 10.6563 18.0868 7.63045C18.0868 4.60457 15.5955 2.15219 12.5216 2.15219C9.44769 2.15219 6.95638 4.60457 6.95638 7.63045C6.95638 10.6563 9.44769 13.1087 12.5216 13.1087ZM16.4173 14.4783H15.6912C14.7259 14.9148 13.652 15.1631 12.5216 15.1631C11.3912 15.1631 10.3216 14.9148 9.35204 14.4783H8.62595C5.39986 14.4783 2.78247 17.0548 2.78247 20.2304V22.0109C2.78247 23.1451 3.71725 24.0652 4.86943 24.0652H20.1738C21.3259 24.0652 22.2607 23.1451 22.2607 22.0109V20.2304C22.2607 17.0548 19.6433 14.4783 16.4173 14.4783Z" fill="#292929"/>
</svg>
